# Blender v3.2.0 OBJ File: ''
# www.blender.org
mtllib cheese.mtl
o cheese_piece_low.001_cheese_piece_low.002
v 0.356683 0.123020 0.429235
v 0.195012 0.222023 0.454809
v 0.200771 0.117382 0.482897
v 0.362277 0.002828 0.431021
v 0.208032 -0.009608 0.486664
v 0.215822 -0.223485 0.454304
v 0.357144 -0.117835 0.419466
v 0.211123 -0.138676 0.477013
v 0.312510 0.251154 0.378677
v 0.185404 0.250225 0.414530
v 0.078198 0.229255 -0.282392
v 0.082516 0.142659 -0.270312
v 0.065815 0.138339 -0.322114
v 0.005159 0.101885 -0.475781
v 0.041206 0.071004 -0.387726
v 0.037956 0.020268 -0.395246
v 0.103459 -0.235653 -0.231327
v 0.075070 -0.074611 -0.306515
v 0.094032 -0.069843 -0.257808
v 0.345663 -0.227798 0.389038
v 0.327342 -0.243069 0.363409
v 0.342096 -0.212796 0.356769
v 0.106994 -0.042118 -0.223137
v 0.116285 -0.005171 -0.200667
v 0.354144 -0.113001 0.383154
v 0.363240 0.004336 0.399508
v 0.118236 0.031012 -0.192289
v 0.361484 0.114532 0.399990
v 0.345160 0.226862 0.407678
v 0.350467 0.225895 0.373680
v 0.113849 0.080261 -0.197996
v 0.157860 0.227340 -0.093307
v 0.099983 0.120175 -0.227474
v 0.023148 -0.149535 -0.428840
v 0.038132 -0.242831 -0.385970
v 0.018242 -0.184928 -0.439382
v -0.194620 0.221688 0.455029
v -0.312444 0.249857 0.377980
v -0.346134 0.228366 0.410229
v -0.360330 0.123595 0.434809
v -0.366184 0.114478 0.397984
v -0.354618 0.226711 0.371869
v -0.029744 0.228574 -0.411817
v -0.015577 0.203566 -0.448877
v -0.052955 0.112772 -0.359868
v -0.070550 0.134997 -0.316356
v -0.083826 0.228831 -0.284753
v -0.100638 -0.235942 -0.229411
v -0.108693 -0.034718 -0.225637
v -0.095027 -0.059642 -0.258436
v -0.354304 -0.234281 0.387728
v -0.346150 -0.212735 0.354635
v -0.328642 -0.246827 0.363385
v -0.369971 -0.119098 0.421686
v -0.358825 -0.113098 0.381078
v -0.115874 0.002099 -0.208068
v -0.215295 -0.222614 0.452730
v -0.365206 0.002524 0.435425
v -0.366822 0.004337 0.398027
v -0.200470 0.117290 0.482435
v -0.208233 -0.009659 0.487562
v -0.115613 0.078297 -0.207443
v -0.118004 0.033455 -0.202126
v -0.162521 0.227668 -0.095223
v -0.105983 0.113784 -0.231455
v -0.089307 0.137695 -0.272099
v 0.049837 0.251331 -0.269149
v 0.126820 0.249583 -0.077873
v 0.000069 -0.219174 0.477452
v -0.211009 -0.138576 0.478658
v 0.002123 -0.141259 0.501497
v -0.000003 0.001733 0.507155
v 0.000031 0.117773 0.502961
v -0.003691 0.227250 0.472848
v 0.000038 0.248596 0.438239
v -0.185203 0.249595 0.414749
v -0.126820 0.249589 -0.077873
v -0.049734 0.250859 -0.269144
v -0.000002 0.248020 -0.413214
v 0.000000 0.215772 -0.460980
v 0.016115 0.203596 -0.449150
v -0.000568 0.104149 -0.484209
v -0.022618 -0.150300 -0.429183
v 0.000010 -0.119586 -0.448564
v -0.000100 -0.150330 -0.438214
v -0.001431 -0.182009 -0.445817
v 0.007232 -0.214555 -0.467904
v 0.009848 -0.239710 -0.459237
v 0.009227 -0.084740 -0.465680
v 0.000094 -0.090105 -0.473486
v 0.022630 -0.112629 -0.433415
v 0.047344 -0.029336 -0.377518
v 0.057809 -0.056264 -0.348180
v 0.030066 0.228633 -0.411970
v 0.052246 0.111431 -0.361843
v -0.036287 0.069358 -0.372696
v -0.043777 0.108108 -0.347194
v -0.050291 -0.045181 -0.335693
v -0.076515 -0.063946 -0.303276
v -0.068726 -0.056622 -0.296345
v -0.062805 0.125670 -0.311133
v -0.078856 0.125405 -0.269900
v -0.091401 0.105599 -0.235810
v -0.101651 0.072450 -0.214668
v -0.104375 0.031916 -0.207518
v -0.101909 0.005103 -0.211854
v -0.094816 -0.027911 -0.229831
v -0.085248 -0.049763 -0.259977
v -0.058515 -0.048144 -0.346613
v -0.022518 -0.112611 -0.433550
v -0.042896 -0.012591 -0.365363
v -0.046039 -0.020151 -0.376816
v -0.007475 -0.083331 -0.468449
v -0.038752 0.026032 -0.378266
v -0.042918 0.071378 -0.383067
v -0.040965 0.025857 -0.388714
v -0.004916 0.101799 -0.475676
v -0.014679 -0.069757 -0.454111
v -0.005855 -0.214852 -0.468387
v -0.008829 -0.238812 -0.456950
v -0.037394 -0.242768 -0.385686
v -0.017831 -0.186055 -0.439193
v 0.000932 -0.248770 -0.442744
v 0.025701 -0.250298 -0.379223
v -0.025632 -0.249827 -0.379217
v 0.207044 -0.249312 0.421563
v -0.207789 -0.248747 0.422159
v 0.082637 -0.250203 -0.222804
v -0.082636 -0.250339 -0.222807
v 0.000031 -0.248932 0.443165
v -0.003965 0.021917 -0.382098
v -0.002320 0.073815 -0.376357
v 0.038146 0.022925 -0.383858
v 0.038277 0.067337 -0.376726
v 0.048152 0.107019 -0.352543
v -0.001122 0.117357 -0.351413
v 0.059754 0.130842 -0.316625
v -0.008568 0.145758 -0.313766
v 0.074615 0.135474 -0.268298
v 0.005884 0.155310 -0.256142
v 0.006894 0.134055 -0.199670
v 0.090480 0.114598 -0.229870
v 0.102767 0.076699 -0.203162
v 0.007501 0.094660 -0.161258
v 0.006093 0.036430 -0.144168
v 0.108750 0.030446 -0.197844
v 0.107260 -0.003440 -0.207052
v 0.007612 -0.027154 -0.161030
v 0.096426 -0.038756 -0.229364
v 0.000991 -0.070101 -0.202090
v 0.086122 -0.057967 -0.258436
v 0.001960 -0.085368 -0.243427
v 0.070150 -0.062565 -0.301956
v -0.005033 -0.082209 -0.291711
v -0.002730 -0.062666 -0.332543
v 0.056244 -0.048590 -0.340394
v 0.045145 -0.018189 -0.367288
v -0.006212 -0.024169 -0.367135
vt 0.246400 0.013700
vt 0.282600 0.084900
vt 0.238500 0.081900
vt 0.194800 0.008300
vt 0.187200 0.076900
vt 0.099500 0.069800
vt 0.142100 0.007800
vt 0.134800 0.073900
vt 0.309400 0.032000
vt 0.303100 0.087300
vt 0.352200 0.476700
vt 0.292800 0.483900
vt 0.290600 0.446500
vt 0.271300 0.334400
vt 0.247400 0.397200
vt 0.213500 0.390400
vt 0.034800 0.501700
vt 0.146400 0.451800
vt 0.148100 0.487500
vt 0.022600 0.950300
vt 0.011300 0.929400
vt 0.034300 0.929400
vt 0.165800 0.513400
vt 0.190200 0.531200
vt 0.100100 0.951900
vt 0.095400 0.976300
vt 0.177900 0.967000
vt 0.176200 0.988000
vt 0.214500 0.538100
vt 0.250600 0.968600
vt 0.256800 0.988200
vt 0.327100 0.970900
vt 0.322700 0.948600
vt 0.352700 0.947600
vt 0.247900 0.535100
vt 0.345100 0.617300
vt 0.276000 0.514700
vt 0.097900 0.358000
vt 0.033900 0.390200
vt 0.071900 0.351300
vt 0.277200 0.244200
vt 0.301100 0.299700
vt 0.281900 0.310700
vt 0.235000 0.314200
vt 0.965600 0.265500
vt 0.967800 0.342200
vt 0.943300 0.335500
vt 0.942100 0.366500
vt 0.394000 0.346500
vt 0.369300 0.331100
vt 0.429400 0.273700
vt 0.460200 0.287800
vt 0.482600 0.349600
vt 0.515100 0.045500
vt 0.523500 0.175500
vt 0.499700 0.160500
vt 0.956100 0.038300
vt 0.933900 0.052800
vt 0.934200 0.027000
vt 0.981500 0.113600
vt 0.953900 0.117900
vt 0.537100 0.198900
vt 0.091800 0.245100
vt 0.129200 0.315500
vt 0.076700 0.308100
vt 0.991200 0.193400
vt 0.966700 0.194400
vt 0.232600 0.244000
vt 0.182500 0.315000
vt 0.180500 0.245100
vt 0.537700 0.249300
vt 0.541400 0.219700
vt 0.620000 0.348800
vt 0.521100 0.273400
vt 0.492000 0.289300
vt 0.378500 0.478500
vt 0.372700 0.620400
vt 0.098500 0.157300
vt 0.127800 0.243700
vt 0.131500 0.157900
vt 0.188500 0.161000
vt 0.234900 0.162700
vt 0.280500 0.166000
vt 0.297300 0.165000
vt 0.298100 0.243200
vt 0.419700 0.486800
vt 0.685400 0.417800
vt 0.444900 0.587100
vt 0.736500 0.548500
vt 0.622300 0.378700
vt 0.494300 0.677900
vt 0.819500 0.470200
vt 0.799500 0.418900
vt 0.482900 0.378700
vt 0.883800 0.415600
vt 0.383700 0.366900
vt 0.357300 0.340300
vt 0.337400 0.358600
vt 0.273300 0.327600
vt 0.347800 0.346500
vt 0.377800 0.105100
vt 0.359400 0.125100
vt 0.362200 0.105500
vt 0.097600 0.340200
vt 0.074800 0.336200
vt 0.050100 0.337100
vt 0.038400 0.343600
vt 0.145900 0.334600
vt 0.142700 0.326400
vt 0.119500 0.337500
vt 0.124300 0.356300
vt 0.179300 0.401800
vt 0.160200 0.422000
vt 0.352000 0.385200
vt 0.374000 0.376000
vt 0.273700 0.417300
vt 0.420900 0.245200
vt 0.437500 0.267300
vt 0.446100 0.175300
vt 0.468100 0.158800
vt 0.470900 0.166500
vt 0.462100 0.279100
vt 0.490100 0.279000
vt 0.512600 0.265600
vt 0.527800 0.244800
vt 0.531800 0.219000
vt 0.528000 0.202200
vt 0.515900 0.182100
vt 0.496000 0.169000
vt 0.439300 0.170000
vt 0.376400 0.129900
vt 0.426300 0.194300
vt 0.419100 0.189000
vt 0.354000 0.150200
vt 0.417600 0.218800
vt 0.413500 0.247300
vt 0.411000 0.218400
vt 0.344100 0.268100
vt 0.350200 0.266600
vt 0.364200 0.158200
vt 0.048300 0.328600
vt 0.031800 0.335200
vt 0.407600 0.045000
vt 0.370700 0.081200
vt 0.359600 0.085200
vt 0.351600 0.061100
vt 0.359700 0.046600
vt 0.027400 0.347500
vt 0.023600 0.390700
vt 0.528400 0.794900
vt 0.490500 0.790500
vt 0.520500 0.767600
vt 0.365600 0.035600
vt 0.408500 0.035500
vt 0.081900 0.070200
vt 0.091800 0.009900
vt 0.062900 0.299400
vt 0.074900 0.243300
vt 0.595000 0.713300
vt 0.620300 0.801200
vt 0.016900 0.501300
vt 0.080000 0.156500
vt 0.918800 0.548300
vt 0.961800 0.655200
vt 0.982500 0.768900
vt 0.514400 0.030000
vt 0.466000 0.812500
vt 0.492900 0.848500
vt 0.454900 0.836700
vt 0.215100 0.398100
vt 0.244100 0.404500
vt 0.448900 0.867800
vt 0.269200 0.423300
vt 0.434000 0.794000
vt 0.418800 0.824500
vt 0.411800 0.862800
vt 0.283600 0.449100
vt 0.386800 0.805700
vt 0.411500 0.767100
vt 0.376300 0.860300
vt 0.285200 0.482500
vt 0.798000 0.917300
vt 0.838800 0.966500
vt 0.796000 0.972100
vt 0.800800 0.852400
vt 0.841000 0.907600
vt 0.761100 0.915200
vt 0.758300 0.978100
vt 0.770000 0.842000
vt 0.270900 0.509100
vt 0.245300 0.527100
vt 0.731400 0.912000
vt 0.740100 0.833400
vt 0.720100 0.979900
vt 0.701500 0.906800
vt 0.683800 0.977300
vt 0.709600 0.829000
vt 0.214700 0.530600
vt 0.192200 0.523900
vt 0.690100 0.826700
vt 0.670100 0.902300
vt 0.658800 0.970800
vt 0.628600 0.958500
vt 0.641800 0.893300
vt 0.661500 0.825900
vt 0.169700 0.505800
vt 0.157600 0.485000
vt 0.631900 0.825700
vt 0.618100 0.888500
vt 0.603700 0.946700
vt 0.155400 0.454000
vt 0.565400 0.833000
vt 0.591600 0.877000
vt 0.562600 0.870800
vt 0.601000 0.830200
vt 0.571100 0.929100
vt 0.165600 0.427100
vt 0.542000 0.910900
vt 0.186900 0.408700
vt 0.528100 0.857800
vt 0.513600 0.894200
vt 0.530100 0.828400
vt 0.291700 0.020100
vt 0.989600 0.273000
vt 0.412600 0.414100
vt 0.538900 0.736100
vt 0.348400 0.146000
vt 0.077500 0.013600
vt 0.869200 0.493300
vt 0.969800 0.842200
vt 0.498800 0.821900
vt 0.482100 0.879100
vt 0.835000 0.861700
vn 0.7519 0.1368 0.6450
vn 0.1650 0.5647 0.8086
vn 0.2092 0.1496 0.9664
vn 0.8024 -0.0261 0.5962
vn 0.2294 -0.0159 0.9732
vn 0.2238 -0.5362 0.8139
vn 0.8380 -0.1501 0.5246
vn 0.2443 -0.1579 0.9568
vn 0.2919 0.9462 0.1398
vn 0.0535 0.9519 0.3017
vn 0.8251 0.4663 -0.3190
vn 0.8580 -0.3431 -0.3822
vn 0.9353 -0.2811 -0.2149
vn 0.8766 0.0098 -0.4812
vn 0.9848 -0.0920 -0.1476
vn 0.9705 0.0279 -0.2394
vn 0.8166 -0.4772 -0.3246
vn 0.9219 0.1878 -0.3390
vn 0.8873 0.2090 -0.4110
vn 0.7706 -0.5437 0.3324
vn 0.5109 -0.8589 -0.0365
vn 0.9295 -0.2261 -0.2914
vn 0.8064 0.1921 -0.5593
vn 0.8064 0.1188 -0.5793
vn 0.9710 -0.0489 -0.2339
vn 0.9843 -0.0093 -0.1763
vn 0.7750 0.0484 -0.6301
vn 0.9925 0.0514 -0.1110
vn 0.6500 0.5402 0.5345
vn 0.8744 0.4660 -0.1354
vn 0.7768 -0.0912 -0.6231
vn 0.8142 0.4742 -0.3349
vn 0.7857 -0.2507 -0.5655
vn 0.7599 -0.0201 -0.6497
vn 0.7854 -0.5330 -0.3146
vn 0.7483 0.1724 -0.6405
vn -0.1585 0.5690 0.8070
vn -0.2489 0.9602 0.1264
vn -0.6112 0.5796 0.5389
vn -0.7397 0.1447 0.6572
vn -0.9925 0.0534 -0.1103
vn -0.8594 0.4984 -0.1141
vn -0.7599 0.4887 -0.4286
vn -0.8110 0.2479 -0.5299
vn -0.9542 -0.2825 -0.0988
vn -0.8926 -0.3338 -0.3031
vn -0.8001 0.4974 -0.3352
vn -0.8240 -0.4593 -0.3317
vn -0.7799 0.2116 -0.5891
vn -0.8518 0.2523 -0.4590
vn -0.7523 -0.6110 0.2466
vn -0.9028 -0.2286 -0.3643
vn -0.4391 -0.8970 -0.0504
vn -0.8738 -0.1429 0.4648
vn -0.9454 -0.0258 -0.3250
vn -0.7088 0.1287 -0.6936
vn -0.2175 -0.5434 0.8108
vn -0.7824 -0.0044 0.6228
vn -0.9837 0.0069 -0.1799
vn -0.1917 0.1493 0.9700
vn -0.2131 -0.0086 0.9770
vn -0.7931 -0.1041 -0.6002
vn -0.7336 0.0048 -0.6796
vn -0.7994 0.5046 -0.3262
vn -0.7969 -0.2335 -0.5571
vn -0.8613 -0.2796 -0.4243
vn 0.2734 0.9557 -0.1089
vn 0.2609 0.9599 -0.1029
vn 0.0003 -0.5347 0.8450
vn -0.2273 -0.1726 0.9584
vn 0.0053 -0.1733 0.9849
vn 0.0006 0.0005 1.0000
vn -0.0003 0.1502 0.9887
vn -0.0023 0.5923 0.8057
vn 0.0036 0.9554 0.2954
vn -0.0601 0.9527 0.2978
vn -0.2318 0.9685 -0.0910
vn -0.2423 0.9650 -0.1005
vn -0.0042 0.9134 -0.4071
vn -0.0096 0.5806 -0.8141
vn 0.8035 0.2510 -0.5398
vn -0.0560 0.0476 -0.9973
vn -0.7577 -0.0239 -0.6521
vn 0.0016 -0.4037 -0.9149
vn -0.0008 -0.0465 -0.9989
vn -0.0585 0.4298 -0.9010
vn 0.4890 0.1172 -0.8644
vn 0.4921 -0.5510 -0.6740
vn 0.7958 -0.1649 -0.5827
vn 0.0075 -0.4129 -0.9108
vn 0.8309 -0.1206 -0.5431
vn 0.9627 0.1025 -0.2504
vn 0.9513 0.1410 -0.2743
vn 0.7646 0.4895 -0.4193
vn 0.9690 -0.2036 -0.1396
vn -0.4142 -0.3376 0.8453
vn -0.2681 -0.7690 0.5803
vn -0.1762 0.8683 0.4637
vn -0.8670 0.3877 -0.3130
vn -0.1454 0.9889 -0.0315
vn -0.2590 -0.9636 0.0668
vn -0.1874 -0.9133 -0.3616
vn -0.0547 -0.7054 -0.7067
vn -0.0426 -0.3447 -0.9377
vn 0.0588 0.0093 -0.9982
vn 0.0841 0.3148 -0.9454
vn -0.0096 0.6362 -0.7715
vn -0.1792 0.8681 -0.4629
vn -0.9330 0.3440 -0.1057
vn -0.8332 -0.1217 -0.5394
vn -0.5538 0.5096 0.6584
vn -0.9721 0.1227 -0.2000
vn -0.7625 -0.1591 -0.6271
vn -0.6105 0.0939 0.7864
vn -0.9934 -0.1146 -0.0035
vn -0.9914 0.0245 -0.1283
vn -0.9068 0.0058 -0.4216
vn -0.9126 -0.0107 -0.4088
vn -0.4642 0.0840 -0.8817
vn -0.5839 -0.5307 -0.6143
vn -0.7842 -0.5356 -0.3134
vn -0.7742 0.1541 -0.6139
vn -0.0171 -0.9616 -0.2737
vn 0.2249 -0.9702 -0.0904
vn -0.2348 -0.9677 -0.0921
vn 0.0977 -0.9387 0.3307
vn -0.1088 -0.9275 0.3577
vn 0.2622 -0.9599 -0.0991
vn -0.2908 -0.9500 -0.1133
vn -0.0006 -0.9289 0.3704
vn 0.0661 0.1080 0.9920
vn 0.0522 -0.3314 0.9421
vn 0.7689 0.1060 0.6306
vn 0.6075 -0.3282 0.7233
vn 0.4830 -0.6979 0.5288
vn 0.0332 -0.6722 0.7396
vn 0.3568 -0.9143 0.1919
vn 0.0953 -0.9253 0.3671
vn 0.1625 -0.9477 -0.2746
vn 0.0163 -0.9922 -0.1236
vn 0.0199 -0.8244 -0.5657
vn 0.0786 -0.7256 -0.6836
vn 0.0373 -0.3495 -0.9362
vn 0.0138 -0.4923 -0.8703
vn 0.0234 -0.0114 -0.9997
vn 0.0557 0.0758 -0.9956
vn 0.1162 0.3814 -0.9171
vn -0.0025 0.4811 -0.8767
vn 0.0997 0.6700 -0.7356
vn 0.0500 0.8245 -0.5637
vn 0.2859 0.8557 -0.4313
vn 0.0266 0.9854 -0.1681
vn 0.4304 0.9009 -0.0557
vn 0.0846 0.9707 0.2247
vn 0.0564 0.8188 0.5713
vn 0.5922 0.7611 0.2645
vn 0.6717 0.5003 0.5463
vn 0.0717 0.5110 0.8566
usemtl Default_OBJ
s 1
f 1/1/1 2/2/2 3/3/3
f 4/4/4 3/3/3 5/5/5
f 6/6/6 7/7/7 8/8/8
f 7/7/7 5/5/5 8/8/8
f 2/2/2 9/9/9 10/10/10
f 11/11/11 12/12/12 13/13/13
f 14/14/14 15/15/15 16/16/16
f 17/17/17 18/18/18 19/19/19
f 20/20/20 21/21/21 22/22/22
f 17/17/17 23/23/23 22/22/22
f 22/22/22 24/24/24 25/25/25
f 7/26/7 26/27/26 4/28/4
f 7/26/7 22/22/22 25/25/25
f 25/25/25 27/29/27 26/27/26
f 4/28/4 28/30/28 1/31/1
f 29/32/29 28/30/28 30/33/30
f 9/34/9 29/32/29 30/33/30
f 28/30/28 27/29/27 31/35/31
f 30/33/30 28/30/28 31/35/31
f 32/36/32 31/35/31 33/37/33
f 33/37/33 11/11/11 32/36/32
f 34/38/34 35/39/35 36/40/36
f 37/41/37 38/42/38 39/43/39
f 40/44/40 37/41/37 39/43/39
f 41/45/41 39/46/39 42/47/42
f 39/46/39 38/48/38 42/47/42
f 43/49/43 44/50/44 45/51/45
f 46/52/46 47/53/47 43/49/43
f 43/49/43 45/51/45 46/52/46
f 48/54/48 49/55/49 50/56/50
f 51/57/51 52/58/52 53/59/53
f 52/58/52 54/60/54 55/61/55
f 52/58/52 56/62/56 49/55/49
f 57/63/57 54/64/54 51/65/51
f 58/66/58 41/45/41 59/67/59
f 60/68/60 58/69/58 61/70/61
f 59/67/59 54/60/54 58/66/58
f 54/64/54 61/70/61 58/69/58
f 41/45/41 42/47/42 62/71/62
f 63/72/63 41/45/41 62/71/62
f 64/73/64 62/71/62 42/47/42
f 63/72/63 55/61/55 59/67/59
f 47/53/47 65/74/65 64/73/64
f 46/52/46 66/75/66 47/53/47
f 32/36/32 67/76/67 68/77/68
f 69/78/69 70/79/70 57/63/57
f 69/78/69 8/8/8 71/80/71
f 71/80/71 61/70/61 70/79/70
f 71/80/71 5/5/5 72/81/72
f 72/81/72 60/68/60 61/70/61
f 37/41/37 73/82/73 74/83/74
f 72/81/72 3/3/3 73/82/73
f 2/2/2 75/84/75 74/83/74
f 73/82/73 2/2/2 74/83/74
f 76/85/76 74/83/74 75/84/75
f 9/34/9 32/36/32 68/77/68
f 10/86/10 68/87/68 75/88/75
f 77/89/77 75/88/75 68/87/68
f 64/73/64 38/48/38 77/90/77
f 77/89/77 76/91/76 75/88/75
f 78/92/78 68/87/68 67/93/67
f 64/73/64 78/94/78 47/53/47
f 78/92/78 67/93/67 79/95/79
f 44/50/44 79/96/79 80/97/80
f 43/49/43 78/94/78 79/96/79
f 81/98/81 82/99/82 80/100/80
f 83/101/83 84/102/84 85/103/85
f 85/104/85 36/40/36 86/105/86
f 86/105/86 36/40/36 87/106/87
f 88/107/88 36/40/36 35/39/35
f 82/99/82 89/108/89 90/109/90
f 89/108/89 14/14/14 16/16/16
f 84/110/84 89/108/89 91/111/91
f 89/108/89 92/112/92 91/111/91
f 93/113/93 34/38/34 91/111/91
f 34/38/34 84/110/84 91/111/91
f 92/112/92 93/113/93 91/111/91
f 94/114/94 67/76/67 11/11/11
f 81/98/81 79/115/79 94/114/94
f 95/116/95 94/114/94 13/13/13
f 94/114/94 11/11/11 13/13/13
f 95/116/95 14/14/14 81/98/81
f 45/51/45 96/117/96 97/118/97
f 98/119/98 99/120/99 100/121/100
f 46/52/46 97/118/97 101/122/101
f 102/123/102 46/52/46 101/122/101
f 65/74/65 102/123/102 103/124/103
f 63/72/63 104/125/104 105/126/105
f 104/125/104 65/74/65 103/124/103
f 56/62/56 105/126/105 106/127/106
f 49/55/49 106/127/106 107/128/107
f 100/121/100 50/56/50 108/129/108
f 50/56/50 107/128/107 108/129/108
f 83/101/83 109/130/109 110/131/110
f 109/130/109 111/132/111 112/133/112
f 113/134/113 84/102/84 110/131/110
f 114/135/114 115/136/115 116/137/116
f 111/132/111 116/137/116 112/133/112
f 44/50/44 82/138/82 117/139/117
f 45/51/45 117/139/117 115/136/115
f 82/138/82 113/134/113 117/139/117
f 117/139/117 113/134/113 118/140/118
f 118/140/118 116/137/116 117/139/117
f 117/139/117 116/137/116 115/136/115
f 118/140/118 113/134/113 110/131/110
f 110/131/110 112/133/112 118/140/118
f 119/141/119 86/105/86 87/106/87
f 119/141/119 88/107/88 120/142/120
f 121/143/121 83/101/83 122/144/122
f 122/144/122 85/103/85 86/145/86
f 122/144/122 86/145/86 119/146/119
f 122/144/122 120/147/120 121/143/121
f 48/54/48 99/120/99 121/143/121
f 120/142/120 88/107/88 123/148/123
f 123/148/123 35/39/35 124/149/124
f 125/150/125 123/151/123 124/152/124
f 121/143/121 123/153/123 125/154/125
f 126/155/126 20/156/20 6/6/6
f 57/63/57 53/157/53 127/158/127
f 125/150/125 128/159/128 129/160/129
f 124/149/124 17/17/17 128/161/128
f 17/17/17 21/21/21 128/161/128
f 126/155/126 69/78/69 130/162/130
f 128/159/128 126/163/126 130/164/130
f 127/165/127 129/160/129 130/164/130
f 69/78/69 127/158/127 130/162/130
f 129/160/129 128/159/128 130/164/130
f 48/54/48 125/154/125 129/166/129
f 53/59/53 48/54/48 129/166/129
f 96/167/96 131/168/131 132/169/132
f 133/170/133 15/15/15 134/171/134
f 131/168/131 134/172/134 132/169/132
f 134/171/134 95/116/95 135/173/135
f 97/174/97 132/169/132 136/175/136
f 132/169/132 135/176/135 136/175/136
f 135/173/135 13/13/13 137/177/137
f 97/174/97 138/178/138 101/179/101
f 136/175/136 137/180/137 138/178/138
f 137/177/137 12/12/12 139/181/139
f 140/182/140 137/183/137 139/184/139
f 102/185/102 138/186/138 140/182/140
f 141/187/141 139/184/139 142/188/142
f 102/185/102 141/187/141 103/189/103
f 142/190/142 12/12/12 33/37/33
f 143/191/143 33/37/33 31/35/31
f 103/189/103 144/192/144 104/193/104
f 144/192/144 142/188/142 143/194/143
f 145/195/145 143/194/143 146/196/146
f 104/193/104 145/195/145 105/197/105
f 143/191/143 27/29/27 146/198/146
f 146/198/146 24/24/24 147/199/147
f 106/200/106 145/195/145 148/201/148
f 148/201/148 146/196/146 147/202/147
f 148/201/148 149/203/149 150/204/150
f 107/205/107 148/201/148 150/204/150
f 149/206/149 19/19/19 151/207/151
f 147/199/147 23/23/23 149/206/149
f 108/208/108 150/204/150 152/209/152
f 150/204/150 151/210/151 152/209/152
f 153/211/153 19/19/19 18/18/18
f 98/212/98 154/213/154 155/214/155
f 100/215/100 152/209/152 154/213/154
f 152/209/152 153/216/153 154/213/154
f 156/217/156 18/18/18 93/113/93
f 155/214/155 153/216/153 156/218/156
f 156/217/156 92/112/92 157/219/157
f 158/220/158 156/218/156 157/221/157
f 16/16/16 157/219/157 92/112/92
f 157/221/157 131/168/131 158/220/158
f 131/168/131 111/222/111 158/220/158
f 98/212/98 158/220/158 111/222/111
f 1/1/1 29/223/29 2/2/2
f 4/4/4 1/1/1 3/3/3
f 6/6/6 20/156/20 7/7/7
f 7/7/7 4/4/4 5/5/5
f 2/2/2 29/223/29 9/9/9
f 17/17/17 35/39/35 18/18/18
f 17/17/17 19/19/19 23/23/23
f 22/22/22 23/23/23 24/24/24
f 7/26/7 25/25/25 26/27/26
f 7/26/7 20/20/20 22/22/22
f 25/25/25 24/24/24 27/29/27
f 4/28/4 26/27/26 28/30/28
f 29/32/29 1/31/1 28/30/28
f 28/30/28 26/27/26 27/29/27
f 32/36/32 30/33/30 31/35/31
f 33/37/33 12/12/12 11/11/11
f 34/38/34 18/18/18 35/39/35
f 37/41/37 76/85/76 38/42/38
f 40/44/40 60/68/60 37/41/37
f 41/45/41 40/224/40 39/46/39
f 48/54/48 52/58/52 49/55/49
f 52/58/52 51/57/51 54/60/54
f 52/58/52 55/61/55 56/62/56
f 57/63/57 70/79/70 54/64/54
f 58/66/58 40/224/40 41/45/41
f 60/68/60 40/44/40 58/69/58
f 59/67/59 55/61/55 54/60/54
f 54/64/54 70/79/70 61/70/61
f 63/72/63 59/67/59 41/45/41
f 64/73/64 65/74/65 62/71/62
f 63/72/63 56/62/56 55/61/55
f 47/53/47 66/75/66 65/74/65
f 32/36/32 11/11/11 67/76/67
f 69/78/69 71/80/71 70/79/70
f 69/78/69 6/6/6 8/8/8
f 71/80/71 72/81/72 61/70/61
f 71/80/71 8/8/8 5/5/5
f 72/81/72 73/82/73 60/68/60
f 37/41/37 60/68/60 73/82/73
f 72/81/72 5/5/5 3/3/3
f 2/2/2 10/10/10 75/84/75
f 73/82/73 3/3/3 2/2/2
f 76/85/76 37/41/37 74/83/74
f 9/34/9 30/33/30 32/36/32
f 10/86/10 9/225/9 68/87/68
f 64/73/64 42/47/42 38/48/38
f 77/89/77 38/226/38 76/91/76
f 78/92/78 77/89/77 68/87/68
f 64/73/64 77/90/77 78/94/78
f 44/50/44 43/49/43 79/96/79
f 43/49/43 47/53/47 78/94/78
f 81/98/81 14/14/14 82/99/82
f 83/101/83 110/131/110 84/102/84
f 85/104/85 34/38/34 36/40/36
f 88/107/88 87/106/87 36/40/36
f 82/99/82 14/14/14 89/108/89
f 84/110/84 90/109/90 89/108/89
f 89/108/89 16/16/16 92/112/92
f 93/113/93 18/18/18 34/38/34
f 34/38/34 85/104/85 84/110/84
f 94/114/94 79/115/79 67/76/67
f 81/98/81 80/100/80 79/115/79
f 95/116/95 81/98/81 94/114/94
f 95/116/95 15/15/15 14/14/14
f 45/51/45 115/136/115 96/117/96
f 98/119/98 109/130/109 99/120/99
f 46/52/46 45/51/45 97/118/97
f 102/123/102 66/75/66 46/52/46
f 65/74/65 66/75/66 102/123/102
f 63/72/63 62/71/62 104/125/104
f 104/125/104 62/71/62 65/74/65
f 56/62/56 63/72/63 105/126/105
f 49/55/49 56/62/56 106/127/106
f 100/121/100 99/120/99 50/56/50
f 50/56/50 49/55/49 107/128/107
f 83/101/83 99/120/99 109/130/109
f 109/130/109 98/119/98 111/132/111
f 113/134/113 90/227/90 84/102/84
f 114/135/114 96/117/96 115/136/115
f 111/132/111 114/135/114 116/137/116
f 44/50/44 80/97/80 82/138/82
f 45/51/45 44/50/44 117/139/117
f 82/138/82 90/227/90 113/134/113
f 118/140/118 112/133/112 116/137/116
f 110/131/110 109/130/109 112/133/112
f 119/141/119 87/106/87 88/107/88
f 121/143/121 99/120/99 83/101/83
f 122/144/122 83/101/83 85/103/85
f 122/144/122 119/146/119 120/147/120
f 48/54/48 50/56/50 99/120/99
f 123/148/123 88/107/88 35/39/35
f 121/143/121 120/147/120 123/153/123
f 126/155/126 21/228/21 20/156/20
f 57/63/57 51/65/51 53/157/53
f 125/150/125 124/152/124 128/159/128
f 124/149/124 35/39/35 17/17/17
f 17/17/17 22/22/22 21/21/21
f 126/155/126 6/6/6 69/78/69
f 128/159/128 21/229/21 126/163/126
f 127/165/127 53/230/53 129/160/129
f 69/78/69 57/63/57 127/158/127
f 48/54/48 121/143/121 125/154/125
f 53/59/53 52/58/52 48/54/48
f 96/167/96 114/231/114 131/168/131
f 133/170/133 16/16/16 15/15/15
f 131/168/131 133/232/133 134/172/134
f 134/171/134 15/15/15 95/116/95
f 97/174/97 96/167/96 132/169/132
f 132/169/132 134/172/134 135/176/135
f 135/173/135 95/116/95 13/13/13
f 97/174/97 136/175/136 138/178/138
f 136/175/136 135/176/135 137/180/137
f 137/177/137 13/13/13 12/12/12
f 140/182/140 138/186/138 137/183/137
f 102/185/102 101/233/101 138/186/138
f 141/187/141 140/182/140 139/184/139
f 102/185/102 140/182/140 141/187/141
f 142/190/142 139/181/139 12/12/12
f 143/191/143 142/190/142 33/37/33
f 103/189/103 141/187/141 144/192/144
f 144/192/144 141/187/141 142/188/142
f 145/195/145 144/192/144 143/194/143
f 104/193/104 144/192/144 145/195/145
f 143/191/143 31/35/31 27/29/27
f 146/198/146 27/29/27 24/24/24
f 106/200/106 105/197/105 145/195/145
f 148/201/148 145/195/145 146/196/146
f 148/201/148 147/202/147 149/203/149
f 107/205/107 106/200/106 148/201/148
f 149/206/149 23/23/23 19/19/19
f 147/199/147 24/24/24 23/23/23
f 108/208/108 107/205/107 150/204/150
f 150/204/150 149/203/149 151/210/151
f 153/211/153 151/207/151 19/19/19
f 98/212/98 100/215/100 154/213/154
f 100/215/100 108/208/108 152/209/152
f 152/209/152 151/210/151 153/216/153
f 156/217/156 153/211/153 18/18/18
f 155/214/155 154/213/154 153/216/153
f 156/217/156 93/113/93 92/112/92
f 158/220/158 155/214/155 156/218/156
f 16/16/16 133/170/133 157/219/157
f 157/221/157 133/232/133 131/168/131
f 131/168/131 114/231/114 111/222/111
f 98/212/98 155/214/155 158/220/158
